M48
;GenerationSoftware,Autodesk,EAGLE,9.6.2*%
;CreationDate,2024-04-03T16:10:22Z*%
FMAT,2
ICI,OFF
METRIC,TZ,000.000
T7C0.200
T6C0.350
T5C1.000
T4C1.200
T3C1.270
T2C1.300
T1C3.400
%
G90
M71
T1
X3500Y3500
X54000Y3500
X54000Y62000
X3500Y62000
T2
X53340Y12740
X53340Y17740
T3
X19810Y2272
X13210Y2272
T4
X54570Y28440
X52070Y28440
X54570Y36790
X52070Y36790
X54570Y44640
X52070Y44640
X41910Y49530
X39370Y49530
X36830Y49530
X34290Y49530
T5
X38250Y55880
X40790Y55880
X43330Y55880
X45870Y55880
X28090Y61460
X30630Y61460
X33170Y61460
X35710Y61460
X38250Y61460
X40790Y61460
X45870Y61460
X28090Y55880
X30630Y55880
X33170Y55880
X35710Y55880
X43330Y61460
T6
X14500Y28500
X25500Y14700
X27500Y14000
X24000Y18500
X20500Y17500
X12500Y49107
X9500Y54000
X20000Y63500
X23000Y41000
X19500Y29500
X15500Y29500
X29000Y50000
X47000Y35000
X40000Y32000
X25000Y33500
X35000Y33500
X25500Y26000
X23500Y26000
X22000Y30500
X6000Y31000
X32000Y24500
X25500Y24500
X25000Y51500
X40500Y53000
X10000Y12500
X32000Y11993
X10000Y17000
X28000Y22000
X21000Y50500
X26500Y50500
X25500Y54500
X10500Y22000
X23800Y22500
X8000Y31000
X8000Y47000
X21893Y47000
X7500Y48500
X7000Y31000
X29857Y52143
X3000Y31000
X3400Y35400
X20500Y54500
X8500Y52500
X5000Y52500
X5000Y36000
X5000Y31000
X6500Y29500
X10500Y29500
X14200Y39000
X32000Y45500
X25007Y21000
X33500Y28000
X21500Y11500
X14500Y11500
X29000Y23500
X25500Y23500
X27500Y53607
X28500Y10000
X24500Y10000
X38500Y33000
X43500Y33000
X13000Y6500
X23000Y6000
X17117Y10893
X15903Y10893
X22000Y14000
X23800Y14000
X10500Y18500
X30000Y22500
X30000Y35500
X41500Y38000
X13000Y31107
X26500Y31500
X8500Y21000
X13500Y21000
X46000Y51500
X31000Y51000
X29000Y31500
X28500Y34500
X33500Y34500
X25893Y34500
X24500Y36500
X18500Y37500
X28000Y36500
X40607Y29000
X38700Y29000
X38700Y26000
X41500Y26000
X45500Y20500
X36000Y20500
X42000Y21500
X36000Y24500
X42500Y29000
X27000Y11500
X29000Y36500
X24000Y7000
X22000Y7000
X10000Y45000
X3500Y47500
X3500Y41500
X3500Y37000
X9500Y37500
X20000Y20500
X20500Y58500
X20500Y53000
X40500Y37000
X37000Y37000
X15893Y25500
X18000Y24500
X28000Y47500
X23500Y47000
X35000Y28000
X41000Y13000
X24000Y17000
X34500Y31500
X22500Y28000
X33000Y43500
X32749Y36751
X5500Y17500
X7000Y17500
X25500Y27000
X19500Y27000
X10500Y23800
X4500Y24000
T7
X10080Y41110
X10780Y39010
X10780Y40410
X10780Y41810
X11480Y39710
X11480Y41110
X8680Y39710
X8680Y41110
X9380Y39010
X9380Y40410
X9380Y41810
X10080Y39710
M30