G04 EAGLE Gerber RS-274X export*
G75*
%MOMM*%
%FSLAX34Y34*%
%LPD*%
%IN*%
%IPPOS*%
%AMOC8*
5,1,8,0,0,1.08239X$1,22.5*%
G01*
%ADD10C,0.254000*%


D10*
X0Y0D02*
X580900Y0D01*
X580900Y660300D01*
X0Y660300D01*
X0Y0D01*
X52000Y34443D02*
X51927Y33333D01*
X51782Y32229D01*
X51565Y31138D01*
X51277Y30063D01*
X50919Y29009D01*
X50493Y27980D01*
X50001Y26982D01*
X49444Y26018D01*
X48826Y25093D01*
X48148Y24210D01*
X47414Y23373D01*
X46627Y22586D01*
X45790Y21852D01*
X44907Y21174D01*
X43982Y20556D01*
X43018Y19999D01*
X42020Y19507D01*
X40991Y19081D01*
X39937Y18723D01*
X38862Y18435D01*
X37771Y18218D01*
X36667Y18073D01*
X35557Y18000D01*
X34443Y18000D01*
X33333Y18073D01*
X32229Y18218D01*
X31138Y18435D01*
X30063Y18723D01*
X29009Y19081D01*
X27980Y19507D01*
X26982Y19999D01*
X26018Y20556D01*
X25093Y21174D01*
X24210Y21852D01*
X23373Y22586D01*
X22586Y23373D01*
X21852Y24210D01*
X21174Y25093D01*
X20556Y26018D01*
X19999Y26982D01*
X19507Y27980D01*
X19081Y29009D01*
X18723Y30063D01*
X18435Y31138D01*
X18218Y32229D01*
X18073Y33333D01*
X18000Y34443D01*
X18000Y35557D01*
X18073Y36667D01*
X18218Y37771D01*
X18435Y38862D01*
X18723Y39937D01*
X19081Y40991D01*
X19507Y42020D01*
X19999Y43018D01*
X20556Y43982D01*
X21174Y44907D01*
X21852Y45790D01*
X22586Y46627D01*
X23373Y47414D01*
X24210Y48148D01*
X25093Y48826D01*
X26018Y49444D01*
X26982Y50001D01*
X27980Y50493D01*
X29009Y50919D01*
X30063Y51277D01*
X31138Y51565D01*
X32229Y51782D01*
X33333Y51927D01*
X34443Y52000D01*
X35557Y52000D01*
X36667Y51927D01*
X37771Y51782D01*
X38862Y51565D01*
X39937Y51277D01*
X40991Y50919D01*
X42020Y50493D01*
X43018Y50001D01*
X43982Y49444D01*
X44907Y48826D01*
X45790Y48148D01*
X46627Y47414D01*
X47414Y46627D01*
X48148Y45790D01*
X48826Y44907D01*
X49444Y43982D01*
X50001Y43018D01*
X50493Y42020D01*
X50919Y40991D01*
X51277Y39937D01*
X51565Y38862D01*
X51782Y37771D01*
X51927Y36667D01*
X52000Y35557D01*
X52000Y34443D01*
X557000Y34443D02*
X556927Y33333D01*
X556782Y32229D01*
X556565Y31138D01*
X556277Y30063D01*
X555919Y29009D01*
X555493Y27980D01*
X555001Y26982D01*
X554444Y26018D01*
X553826Y25093D01*
X553148Y24210D01*
X552414Y23373D01*
X551627Y22586D01*
X550790Y21852D01*
X549907Y21174D01*
X548982Y20556D01*
X548018Y19999D01*
X547020Y19507D01*
X545991Y19081D01*
X544937Y18723D01*
X543862Y18435D01*
X542771Y18218D01*
X541667Y18073D01*
X540557Y18000D01*
X539443Y18000D01*
X538333Y18073D01*
X537229Y18218D01*
X536138Y18435D01*
X535063Y18723D01*
X534009Y19081D01*
X532980Y19507D01*
X531982Y19999D01*
X531018Y20556D01*
X530093Y21174D01*
X529210Y21852D01*
X528373Y22586D01*
X527586Y23373D01*
X526852Y24210D01*
X526174Y25093D01*
X525556Y26018D01*
X524999Y26982D01*
X524507Y27980D01*
X524081Y29009D01*
X523723Y30063D01*
X523435Y31138D01*
X523218Y32229D01*
X523073Y33333D01*
X523000Y34443D01*
X523000Y35557D01*
X523073Y36667D01*
X523218Y37771D01*
X523435Y38862D01*
X523723Y39937D01*
X524081Y40991D01*
X524507Y42020D01*
X524999Y43018D01*
X525556Y43982D01*
X526174Y44907D01*
X526852Y45790D01*
X527586Y46627D01*
X528373Y47414D01*
X529210Y48148D01*
X530093Y48826D01*
X531018Y49444D01*
X531982Y50001D01*
X532980Y50493D01*
X534009Y50919D01*
X535063Y51277D01*
X536138Y51565D01*
X537229Y51782D01*
X538333Y51927D01*
X539443Y52000D01*
X540557Y52000D01*
X541667Y51927D01*
X542771Y51782D01*
X543862Y51565D01*
X544937Y51277D01*
X545991Y50919D01*
X547020Y50493D01*
X548018Y50001D01*
X548982Y49444D01*
X549907Y48826D01*
X550790Y48148D01*
X551627Y47414D01*
X552414Y46627D01*
X553148Y45790D01*
X553826Y44907D01*
X554444Y43982D01*
X555001Y43018D01*
X555493Y42020D01*
X555919Y40991D01*
X556277Y39937D01*
X556565Y38862D01*
X556782Y37771D01*
X556927Y36667D01*
X557000Y35557D01*
X557000Y34443D01*
X557000Y619443D02*
X556927Y618333D01*
X556782Y617229D01*
X556565Y616138D01*
X556277Y615063D01*
X555919Y614009D01*
X555493Y612980D01*
X555001Y611982D01*
X554444Y611018D01*
X553826Y610093D01*
X553148Y609210D01*
X552414Y608373D01*
X551627Y607586D01*
X550790Y606852D01*
X549907Y606174D01*
X548982Y605556D01*
X548018Y604999D01*
X547020Y604507D01*
X545991Y604081D01*
X544937Y603723D01*
X543862Y603435D01*
X542771Y603218D01*
X541667Y603073D01*
X540557Y603000D01*
X539443Y603000D01*
X538333Y603073D01*
X537229Y603218D01*
X536138Y603435D01*
X535063Y603723D01*
X534009Y604081D01*
X532980Y604507D01*
X531982Y604999D01*
X531018Y605556D01*
X530093Y606174D01*
X529210Y606852D01*
X528373Y607586D01*
X527586Y608373D01*
X526852Y609210D01*
X526174Y610093D01*
X525556Y611018D01*
X524999Y611982D01*
X524507Y612980D01*
X524081Y614009D01*
X523723Y615063D01*
X523435Y616138D01*
X523218Y617229D01*
X523073Y618333D01*
X523000Y619443D01*
X523000Y620557D01*
X523073Y621667D01*
X523218Y622771D01*
X523435Y623862D01*
X523723Y624937D01*
X524081Y625991D01*
X524507Y627020D01*
X524999Y628018D01*
X525556Y628982D01*
X526174Y629907D01*
X526852Y630790D01*
X527586Y631627D01*
X528373Y632414D01*
X529210Y633148D01*
X530093Y633826D01*
X531018Y634444D01*
X531982Y635001D01*
X532980Y635493D01*
X534009Y635919D01*
X535063Y636277D01*
X536138Y636565D01*
X537229Y636782D01*
X538333Y636927D01*
X539443Y637000D01*
X540557Y637000D01*
X541667Y636927D01*
X542771Y636782D01*
X543862Y636565D01*
X544937Y636277D01*
X545991Y635919D01*
X547020Y635493D01*
X548018Y635001D01*
X548982Y634444D01*
X549907Y633826D01*
X550790Y633148D01*
X551627Y632414D01*
X552414Y631627D01*
X553148Y630790D01*
X553826Y629907D01*
X554444Y628982D01*
X555001Y628018D01*
X555493Y627020D01*
X555919Y625991D01*
X556277Y624937D01*
X556565Y623862D01*
X556782Y622771D01*
X556927Y621667D01*
X557000Y620557D01*
X557000Y619443D01*
X52000Y619443D02*
X51927Y618333D01*
X51782Y617229D01*
X51565Y616138D01*
X51277Y615063D01*
X50919Y614009D01*
X50493Y612980D01*
X50001Y611982D01*
X49444Y611018D01*
X48826Y610093D01*
X48148Y609210D01*
X47414Y608373D01*
X46627Y607586D01*
X45790Y606852D01*
X44907Y606174D01*
X43982Y605556D01*
X43018Y604999D01*
X42020Y604507D01*
X40991Y604081D01*
X39937Y603723D01*
X38862Y603435D01*
X37771Y603218D01*
X36667Y603073D01*
X35557Y603000D01*
X34443Y603000D01*
X33333Y603073D01*
X32229Y603218D01*
X31138Y603435D01*
X30063Y603723D01*
X29009Y604081D01*
X27980Y604507D01*
X26982Y604999D01*
X26018Y605556D01*
X25093Y606174D01*
X24210Y606852D01*
X23373Y607586D01*
X22586Y608373D01*
X21852Y609210D01*
X21174Y610093D01*
X20556Y611018D01*
X19999Y611982D01*
X19507Y612980D01*
X19081Y614009D01*
X18723Y615063D01*
X18435Y616138D01*
X18218Y617229D01*
X18073Y618333D01*
X18000Y619443D01*
X18000Y620557D01*
X18073Y621667D01*
X18218Y622771D01*
X18435Y623862D01*
X18723Y624937D01*
X19081Y625991D01*
X19507Y627020D01*
X19999Y628018D01*
X20556Y628982D01*
X21174Y629907D01*
X21852Y630790D01*
X22586Y631627D01*
X23373Y632414D01*
X24210Y633148D01*
X25093Y633826D01*
X26018Y634444D01*
X26982Y635001D01*
X27980Y635493D01*
X29009Y635919D01*
X30063Y636277D01*
X31138Y636565D01*
X32229Y636782D01*
X33333Y636927D01*
X34443Y637000D01*
X35557Y637000D01*
X36667Y636927D01*
X37771Y636782D01*
X38862Y636565D01*
X39937Y636277D01*
X40991Y635919D01*
X42020Y635493D01*
X43018Y635001D01*
X43982Y634444D01*
X44907Y633826D01*
X45790Y633148D01*
X46627Y632414D01*
X47414Y631627D01*
X48148Y630790D01*
X48826Y629907D01*
X49444Y628982D01*
X50001Y628018D01*
X50493Y627020D01*
X50919Y625991D01*
X51277Y624937D01*
X51565Y623862D01*
X51782Y622771D01*
X51927Y621667D01*
X52000Y620557D01*
X52000Y619443D01*
M02*
