G04 EAGLE Gerber RS-274X export*
G75*
%MOMM*%
%FSLAX34Y34*%
%LPD*%
%INSolderpaste Top*%
%IPPOS*%
%AMOC8*
5,1,8,0,0,1.08239X$1,22.5*%
G01*
%ADD10C,0.150000*%
%ADD11R,1.300000X0.400000*%
%ADD12R,0.300000X0.850000*%
%ADD13R,0.850000X0.300000*%
%ADD14R,1.473200X0.355600*%
%ADD15R,0.800000X0.600000*%
%ADD16R,0.600000X0.800000*%
%ADD17R,0.900000X1.500000*%
%ADD18R,1.500000X0.900000*%
%ADD19R,0.900000X0.900000*%
%ADD20R,1.498600X0.812800*%
%ADD21R,0.812800X1.498600*%
%ADD22R,4.800600X4.800600*%
%ADD23R,0.876300X0.508000*%
%ADD24R,0.460000X1.040000*%
%ADD25R,0.700000X0.600000*%
%ADD26R,0.600000X0.700000*%
%ADD27R,0.700000X0.900000*%
%ADD28R,0.900000X0.700000*%
%ADD29R,1.100000X1.000000*%
%ADD30R,1.000000X1.100000*%
%ADD31R,1.800000X1.600000*%
%ADD32R,2.006600X0.800000*%
%ADD33R,0.800000X2.006600*%
%ADD34R,0.406400X1.346200*%
%ADD35R,1.600200X1.397000*%
%ADD36R,1.905000X1.905000*%
%ADD37R,0.250000X0.500000*%
%ADD38R,2.055481X2.055481*%
%ADD39R,0.270000X0.990000*%
%ADD40R,0.990000X0.270000*%
%ADD41R,1.040000X0.460000*%
%ADD42R,1.500000X1.300000*%
%ADD43R,1.300000X1.500000*%
%ADD44R,0.355600X0.508000*%
%ADD45R,0.508000X0.355600*%
%ADD46R,2.600000X1.600000*%
%ADD47R,1.600000X2.600000*%
%ADD48R,0.711200X0.254000*%
%ADD49R,0.558800X1.320800*%
%ADD50R,0.600000X0.400000*%

G36*
X164205Y593076D02*
X164205Y593076D01*
X164207Y593075D01*
X164250Y593095D01*
X164294Y593113D01*
X164294Y593115D01*
X164296Y593116D01*
X164329Y593201D01*
X164329Y607203D01*
X164328Y607205D01*
X164329Y607207D01*
X164309Y607250D01*
X164291Y607294D01*
X164289Y607294D01*
X164288Y607296D01*
X164203Y607329D01*
X150201Y607329D01*
X150199Y607328D01*
X150197Y607329D01*
X150154Y607309D01*
X150110Y607291D01*
X150110Y607289D01*
X150108Y607288D01*
X150075Y607203D01*
X150075Y593201D01*
X150076Y593199D01*
X150075Y593197D01*
X150095Y593154D01*
X150113Y593110D01*
X150115Y593110D01*
X150116Y593108D01*
X150201Y593075D01*
X164203Y593075D01*
X164205Y593076D01*
G37*
G36*
X132201Y593076D02*
X132201Y593076D01*
X132203Y593075D01*
X132246Y593095D01*
X132290Y593113D01*
X132290Y593115D01*
X132292Y593116D01*
X132325Y593201D01*
X132325Y607203D01*
X132324Y607205D01*
X132325Y607207D01*
X132305Y607250D01*
X132287Y607294D01*
X132285Y607294D01*
X132284Y607296D01*
X132199Y607329D01*
X118197Y607329D01*
X118195Y607328D01*
X118193Y607329D01*
X118150Y607309D01*
X118106Y607291D01*
X118106Y607289D01*
X118104Y607288D01*
X118071Y607203D01*
X118071Y593201D01*
X118072Y593199D01*
X118071Y593197D01*
X118091Y593154D01*
X118109Y593110D01*
X118111Y593110D01*
X118112Y593108D01*
X118197Y593075D01*
X132199Y593075D01*
X132201Y593076D01*
G37*
G36*
X148203Y593076D02*
X148203Y593076D01*
X148205Y593075D01*
X148248Y593095D01*
X148292Y593113D01*
X148292Y593115D01*
X148294Y593116D01*
X148327Y593201D01*
X148327Y607203D01*
X148326Y607205D01*
X148327Y607207D01*
X148307Y607250D01*
X148289Y607294D01*
X148287Y607294D01*
X148286Y607296D01*
X148201Y607329D01*
X134199Y607329D01*
X134197Y607328D01*
X134195Y607329D01*
X134152Y607309D01*
X134108Y607291D01*
X134108Y607289D01*
X134106Y607288D01*
X134073Y607203D01*
X134073Y593201D01*
X134074Y593199D01*
X134073Y593197D01*
X134093Y593154D01*
X134111Y593110D01*
X134113Y593110D01*
X134114Y593108D01*
X134199Y593075D01*
X148201Y593075D01*
X148203Y593076D01*
G37*
G36*
X164205Y577074D02*
X164205Y577074D01*
X164207Y577073D01*
X164250Y577093D01*
X164294Y577111D01*
X164294Y577113D01*
X164296Y577114D01*
X164329Y577199D01*
X164329Y591201D01*
X164328Y591203D01*
X164329Y591205D01*
X164309Y591248D01*
X164291Y591292D01*
X164289Y591292D01*
X164288Y591294D01*
X164203Y591327D01*
X150201Y591327D01*
X150199Y591326D01*
X150197Y591327D01*
X150154Y591307D01*
X150110Y591289D01*
X150110Y591287D01*
X150108Y591286D01*
X150075Y591201D01*
X150075Y577199D01*
X150076Y577197D01*
X150075Y577195D01*
X150095Y577152D01*
X150113Y577108D01*
X150115Y577108D01*
X150116Y577106D01*
X150201Y577073D01*
X164203Y577073D01*
X164205Y577074D01*
G37*
G36*
X148203Y577074D02*
X148203Y577074D01*
X148205Y577073D01*
X148248Y577093D01*
X148292Y577111D01*
X148292Y577113D01*
X148294Y577114D01*
X148327Y577199D01*
X148327Y591201D01*
X148326Y591203D01*
X148327Y591205D01*
X148307Y591248D01*
X148289Y591292D01*
X148287Y591292D01*
X148286Y591294D01*
X148201Y591327D01*
X134199Y591327D01*
X134197Y591326D01*
X134195Y591327D01*
X134152Y591307D01*
X134108Y591289D01*
X134108Y591287D01*
X134106Y591286D01*
X134073Y591201D01*
X134073Y577199D01*
X134074Y577197D01*
X134073Y577195D01*
X134093Y577152D01*
X134111Y577108D01*
X134113Y577108D01*
X134114Y577106D01*
X134199Y577073D01*
X148201Y577073D01*
X148203Y577074D01*
G37*
G36*
X132201Y577074D02*
X132201Y577074D01*
X132203Y577073D01*
X132246Y577093D01*
X132290Y577111D01*
X132290Y577113D01*
X132292Y577114D01*
X132325Y577199D01*
X132325Y591201D01*
X132324Y591203D01*
X132325Y591205D01*
X132305Y591248D01*
X132287Y591292D01*
X132285Y591292D01*
X132284Y591294D01*
X132199Y591327D01*
X118197Y591327D01*
X118195Y591326D01*
X118193Y591327D01*
X118150Y591307D01*
X118106Y591289D01*
X118106Y591287D01*
X118104Y591286D01*
X118071Y591201D01*
X118071Y577199D01*
X118072Y577197D01*
X118071Y577195D01*
X118091Y577152D01*
X118109Y577108D01*
X118111Y577108D01*
X118112Y577106D01*
X118197Y577073D01*
X132199Y577073D01*
X132201Y577074D01*
G37*
G36*
X148203Y561072D02*
X148203Y561072D01*
X148205Y561071D01*
X148248Y561091D01*
X148292Y561109D01*
X148292Y561111D01*
X148294Y561112D01*
X148327Y561197D01*
X148327Y575199D01*
X148326Y575201D01*
X148327Y575203D01*
X148307Y575246D01*
X148289Y575290D01*
X148287Y575290D01*
X148286Y575292D01*
X148201Y575325D01*
X134199Y575325D01*
X134197Y575324D01*
X134195Y575325D01*
X134152Y575305D01*
X134108Y575287D01*
X134108Y575285D01*
X134106Y575284D01*
X134073Y575199D01*
X134073Y561197D01*
X134074Y561195D01*
X134073Y561193D01*
X134093Y561150D01*
X134111Y561106D01*
X134113Y561106D01*
X134114Y561104D01*
X134199Y561071D01*
X148201Y561071D01*
X148203Y561072D01*
G37*
G36*
X132201Y561072D02*
X132201Y561072D01*
X132203Y561071D01*
X132246Y561091D01*
X132290Y561109D01*
X132290Y561111D01*
X132292Y561112D01*
X132325Y561197D01*
X132325Y575199D01*
X132324Y575201D01*
X132325Y575203D01*
X132305Y575246D01*
X132287Y575290D01*
X132285Y575290D01*
X132284Y575292D01*
X132199Y575325D01*
X118197Y575325D01*
X118195Y575324D01*
X118193Y575325D01*
X118150Y575305D01*
X118106Y575287D01*
X118106Y575285D01*
X118104Y575284D01*
X118071Y575199D01*
X118071Y561197D01*
X118072Y561195D01*
X118071Y561193D01*
X118091Y561150D01*
X118109Y561106D01*
X118111Y561106D01*
X118112Y561104D01*
X118197Y561071D01*
X132199Y561071D01*
X132201Y561072D01*
G37*
G36*
X164205Y561072D02*
X164205Y561072D01*
X164207Y561071D01*
X164250Y561091D01*
X164294Y561109D01*
X164294Y561111D01*
X164296Y561112D01*
X164329Y561197D01*
X164329Y575199D01*
X164328Y575201D01*
X164329Y575203D01*
X164309Y575246D01*
X164291Y575290D01*
X164289Y575290D01*
X164288Y575292D01*
X164203Y575325D01*
X150201Y575325D01*
X150199Y575324D01*
X150197Y575325D01*
X150154Y575305D01*
X150110Y575287D01*
X150110Y575285D01*
X150108Y575284D01*
X150075Y575199D01*
X150075Y561197D01*
X150076Y561195D01*
X150075Y561193D01*
X150095Y561150D01*
X150113Y561106D01*
X150115Y561106D01*
X150116Y561104D01*
X150201Y561071D01*
X164203Y561071D01*
X164205Y561072D01*
G37*
G36*
X43752Y145975D02*
X43752Y145975D01*
X43754Y145974D01*
X43797Y145994D01*
X43841Y146012D01*
X43841Y146014D01*
X43843Y146015D01*
X43876Y146100D01*
X43876Y155750D01*
X43875Y155752D01*
X43876Y155754D01*
X43856Y155797D01*
X43838Y155841D01*
X43836Y155841D01*
X43835Y155843D01*
X43750Y155876D01*
X29850Y155876D01*
X29848Y155875D01*
X29846Y155876D01*
X29803Y155856D01*
X29759Y155838D01*
X29759Y155836D01*
X29757Y155835D01*
X29724Y155750D01*
X29724Y146100D01*
X29725Y146098D01*
X29724Y146096D01*
X29744Y146053D01*
X29762Y146009D01*
X29764Y146009D01*
X29765Y146007D01*
X29850Y145974D01*
X43750Y145974D01*
X43752Y145975D01*
G37*
G36*
X43752Y134325D02*
X43752Y134325D01*
X43754Y134324D01*
X43797Y134344D01*
X43841Y134362D01*
X43841Y134364D01*
X43843Y134365D01*
X43876Y134450D01*
X43876Y144100D01*
X43875Y144102D01*
X43876Y144104D01*
X43856Y144147D01*
X43838Y144191D01*
X43836Y144192D01*
X43835Y144193D01*
X43750Y144226D01*
X29850Y144226D01*
X29848Y144225D01*
X29846Y144226D01*
X29803Y144206D01*
X29759Y144188D01*
X29759Y144186D01*
X29757Y144185D01*
X29724Y144100D01*
X29724Y134450D01*
X29725Y134448D01*
X29724Y134446D01*
X29744Y134403D01*
X29762Y134359D01*
X29764Y134359D01*
X29765Y134357D01*
X29850Y134324D01*
X43750Y134324D01*
X43752Y134325D01*
G37*
D10*
X358550Y281650D02*
X376750Y281650D01*
X376750Y277150D01*
X358550Y277150D01*
X358550Y281650D01*
X358550Y278575D02*
X376750Y278575D01*
X376750Y280000D02*
X358550Y280000D01*
X358550Y281425D02*
X376750Y281425D01*
X376750Y294350D02*
X358550Y294350D01*
X376750Y294350D02*
X376750Y289850D01*
X358550Y289850D01*
X358550Y294350D01*
X358550Y291275D02*
X376750Y291275D01*
X376750Y292700D02*
X358550Y292700D01*
X358550Y294125D02*
X376750Y294125D01*
X376750Y307050D02*
X358550Y307050D01*
X376750Y307050D02*
X376750Y302550D01*
X358550Y302550D01*
X358550Y307050D01*
X358550Y303975D02*
X376750Y303975D01*
X376750Y305400D02*
X358550Y305400D01*
X358550Y306825D02*
X376750Y306825D01*
X376750Y319750D02*
X358550Y319750D01*
X376750Y319750D02*
X376750Y315250D01*
X358550Y315250D01*
X358550Y319750D01*
X358550Y316675D02*
X376750Y316675D01*
X376750Y318100D02*
X358550Y318100D01*
X358550Y319525D02*
X376750Y319525D01*
X376750Y332450D02*
X358550Y332450D01*
X376750Y332450D02*
X376750Y327950D01*
X358550Y327950D01*
X358550Y332450D01*
X358550Y329375D02*
X376750Y329375D01*
X376750Y330800D02*
X358550Y330800D01*
X358550Y332225D02*
X376750Y332225D01*
X376750Y345150D02*
X358550Y345150D01*
X376750Y345150D02*
X376750Y340650D01*
X358550Y340650D01*
X358550Y345150D01*
X358550Y342075D02*
X376750Y342075D01*
X376750Y343500D02*
X358550Y343500D01*
X358550Y344925D02*
X376750Y344925D01*
X376750Y357850D02*
X358550Y357850D01*
X376750Y357850D02*
X376750Y353350D01*
X358550Y353350D01*
X358550Y357850D01*
X358550Y354775D02*
X376750Y354775D01*
X376750Y356200D02*
X358550Y356200D01*
X358550Y357625D02*
X376750Y357625D01*
X327250Y357850D02*
X309050Y357850D01*
X327250Y357850D02*
X327250Y353350D01*
X309050Y353350D01*
X309050Y357850D01*
X309050Y354775D02*
X327250Y354775D01*
X327250Y356200D02*
X309050Y356200D01*
X309050Y357625D02*
X327250Y357625D01*
X327250Y345150D02*
X309050Y345150D01*
X327250Y345150D02*
X327250Y340650D01*
X309050Y340650D01*
X309050Y345150D01*
X309050Y342075D02*
X327250Y342075D01*
X327250Y343500D02*
X309050Y343500D01*
X309050Y344925D02*
X327250Y344925D01*
X327250Y332450D02*
X309050Y332450D01*
X327250Y332450D02*
X327250Y327950D01*
X309050Y327950D01*
X309050Y332450D01*
X309050Y329375D02*
X327250Y329375D01*
X327250Y330800D02*
X309050Y330800D01*
X309050Y332225D02*
X327250Y332225D01*
X327250Y319750D02*
X309050Y319750D01*
X327250Y319750D02*
X327250Y315250D01*
X309050Y315250D01*
X309050Y319750D01*
X309050Y316675D02*
X327250Y316675D01*
X327250Y318100D02*
X309050Y318100D01*
X309050Y319525D02*
X327250Y319525D01*
X327250Y307050D02*
X309050Y307050D01*
X327250Y307050D02*
X327250Y302550D01*
X309050Y302550D01*
X309050Y307050D01*
X309050Y303975D02*
X327250Y303975D01*
X327250Y305400D02*
X309050Y305400D01*
X309050Y306825D02*
X327250Y306825D01*
X327250Y294350D02*
X309050Y294350D01*
X327250Y294350D02*
X327250Y289850D01*
X309050Y289850D01*
X309050Y294350D01*
X309050Y291275D02*
X327250Y291275D01*
X327250Y292700D02*
X309050Y292700D01*
X309050Y294125D02*
X327250Y294125D01*
X327250Y281650D02*
X309050Y281650D01*
X327250Y281650D02*
X327250Y277150D01*
X309050Y277150D01*
X309050Y281650D01*
X309050Y278575D02*
X327250Y278575D01*
X327250Y280000D02*
X309050Y280000D01*
X309050Y281425D02*
X327250Y281425D01*
D11*
X209000Y259700D03*
X209000Y269700D03*
D12*
X194000Y281200D03*
X189000Y281200D03*
D13*
X182000Y274200D03*
X182000Y269200D03*
X182000Y264200D03*
X182000Y259200D03*
D12*
X189000Y252200D03*
X194000Y252200D03*
D11*
X209000Y263700D03*
X209000Y273700D03*
D14*
X85090Y276860D03*
X85090Y270256D03*
X85090Y263652D03*
X85090Y257302D03*
X85090Y250698D03*
X85090Y244348D03*
X85090Y237744D03*
X85090Y231140D03*
X143510Y231140D03*
X143510Y237744D03*
X143510Y244348D03*
X143510Y250698D03*
X143510Y257302D03*
X143510Y263652D03*
X143510Y270256D03*
X143510Y276860D03*
D15*
X231200Y304800D03*
X251400Y295300D03*
X251400Y314300D03*
D16*
X101600Y157500D03*
X92100Y137300D03*
X111100Y137300D03*
D17*
X23600Y331600D03*
X36300Y331600D03*
X49000Y331600D03*
X61700Y331600D03*
X74400Y331600D03*
X87100Y331600D03*
X99800Y331600D03*
X112500Y331600D03*
X125200Y331600D03*
X137900Y331600D03*
X150600Y331600D03*
X163300Y331600D03*
X176000Y331600D03*
X188700Y331600D03*
D18*
X201200Y361950D03*
X201200Y374650D03*
X201200Y387350D03*
X201200Y400050D03*
X201200Y412750D03*
X201200Y425450D03*
X201200Y438150D03*
X201200Y450850D03*
X201200Y463550D03*
X201200Y476250D03*
D17*
X188700Y506600D03*
X176000Y506600D03*
X163300Y506600D03*
X150600Y506600D03*
X137900Y506600D03*
X125200Y506600D03*
X112500Y506600D03*
X99800Y506600D03*
X87100Y506600D03*
X74400Y506600D03*
X61700Y506600D03*
X49000Y506600D03*
X36300Y506600D03*
X23600Y506600D03*
D19*
X86800Y390100D03*
X86800Y404100D03*
X86800Y418100D03*
X100800Y390100D03*
X100800Y404100D03*
X100800Y418100D03*
X114800Y390100D03*
X114800Y404100D03*
X114800Y418100D03*
D20*
X101200Y609200D03*
X101200Y596700D03*
X101200Y584200D03*
X101200Y571700D03*
X101200Y559200D03*
D21*
X116200Y544200D03*
X128700Y544200D03*
X141200Y544200D03*
X153700Y544200D03*
X166200Y544200D03*
D20*
X181200Y559200D03*
X181200Y571700D03*
X181200Y584200D03*
X181200Y596700D03*
X181200Y609200D03*
D21*
X166200Y624200D03*
X153700Y624200D03*
X141200Y624200D03*
X128700Y624200D03*
X116200Y624200D03*
D22*
X141200Y584200D03*
D23*
X483045Y92100D03*
X483045Y101600D03*
X483045Y111100D03*
X456756Y111100D03*
X456756Y92100D03*
D24*
X406400Y62700D03*
X406400Y38900D03*
X215900Y227800D03*
X215900Y204000D03*
X177800Y227800D03*
X177800Y204000D03*
D25*
X266700Y261700D03*
X266700Y271700D03*
X266700Y246300D03*
X266700Y236300D03*
X94300Y185500D03*
X94300Y195500D03*
X81400Y195900D03*
X81400Y185900D03*
D26*
X376000Y38100D03*
X386000Y38100D03*
D25*
X416400Y299800D03*
X416400Y309800D03*
X416400Y274400D03*
X416400Y284400D03*
D26*
X527500Y231300D03*
X517500Y231300D03*
D25*
X386000Y398700D03*
X386000Y388700D03*
X406400Y350600D03*
X406400Y360600D03*
D26*
X347900Y203200D03*
X337900Y203200D03*
X337900Y254000D03*
X347900Y254000D03*
D25*
X416400Y236300D03*
X416400Y246300D03*
X63500Y236300D03*
X63500Y246300D03*
D26*
X33100Y175260D03*
X43100Y175260D03*
D25*
X63500Y157400D03*
X63500Y147400D03*
D27*
X336400Y228600D03*
X349400Y228600D03*
D28*
X431800Y349100D03*
X431800Y362100D03*
X482600Y362100D03*
X482600Y349100D03*
X342900Y120500D03*
X342900Y133500D03*
X355600Y120500D03*
X355600Y133500D03*
X242800Y539600D03*
X242800Y552600D03*
D27*
X272900Y76200D03*
X285900Y76200D03*
D29*
X287900Y25400D03*
X270900Y25400D03*
D30*
X381000Y72000D03*
X381000Y55000D03*
D29*
X287900Y50800D03*
X270900Y50800D03*
D30*
X431800Y42300D03*
X431800Y59300D03*
X431800Y148200D03*
X431800Y131200D03*
X304800Y194700D03*
X304800Y211700D03*
D31*
X381000Y242600D03*
X381000Y214600D03*
D32*
X431800Y111600D03*
X431800Y91600D03*
D33*
X274000Y165100D03*
X254000Y165100D03*
D30*
X88900Y110100D03*
X88900Y93100D03*
X266700Y194700D03*
X266700Y211700D03*
D34*
X152100Y51471D03*
X158600Y51471D03*
X165100Y51471D03*
X171600Y51471D03*
X178100Y51471D03*
D35*
X133100Y49221D03*
X197100Y49221D03*
D36*
X153100Y22721D03*
X177100Y22721D03*
D37*
X254000Y91600D03*
X259000Y91600D03*
X264000Y91600D03*
X269000Y91600D03*
X254000Y106600D03*
X259000Y106600D03*
X264000Y106600D03*
X269000Y106600D03*
D38*
X165100Y152400D03*
D39*
X150100Y128800D03*
X155100Y128800D03*
X160100Y128800D03*
X165100Y128800D03*
X170100Y128800D03*
X175100Y128800D03*
X180100Y128800D03*
D40*
X188700Y137400D03*
X188700Y142400D03*
X188700Y147400D03*
X188700Y152400D03*
X188700Y157400D03*
X188700Y162400D03*
X188700Y167400D03*
D39*
X180100Y176000D03*
X175100Y176000D03*
X170100Y176000D03*
X165100Y176000D03*
X160100Y176000D03*
X155100Y176000D03*
X150100Y176000D03*
D40*
X141500Y167400D03*
X141500Y162400D03*
X141500Y157400D03*
X141500Y152400D03*
X141500Y147400D03*
X141500Y142400D03*
X141500Y137400D03*
D41*
X89700Y63500D03*
X113500Y63500D03*
D26*
X220900Y127000D03*
X210900Y127000D03*
X241300Y127000D03*
X251300Y127000D03*
D25*
X228600Y106600D03*
X228600Y96600D03*
D42*
X177800Y74400D03*
X177800Y93400D03*
D28*
X203200Y82400D03*
X203200Y95400D03*
X368300Y120500D03*
X368300Y133500D03*
D43*
X320280Y88340D03*
X320280Y18340D03*
X345280Y18340D03*
X345280Y88340D03*
D26*
X259000Y355600D03*
X249000Y355600D03*
X289400Y355600D03*
X279400Y355600D03*
X279400Y381000D03*
X289400Y381000D03*
D25*
X254000Y386000D03*
X254000Y376000D03*
D44*
X101600Y33401D03*
X101600Y17399D03*
D45*
X233299Y25400D03*
X249301Y25400D03*
X233299Y50800D03*
X249301Y50800D03*
D26*
X210900Y152400D03*
X220900Y152400D03*
D46*
X312200Y393700D03*
X348200Y393700D03*
X444200Y228600D03*
X480200Y228600D03*
D47*
X454500Y274100D03*
X454500Y310100D03*
D48*
X119253Y106600D03*
X119253Y101600D03*
X119253Y96600D03*
X134747Y96600D03*
X134747Y101600D03*
X134747Y106600D03*
D49*
X127000Y101600D03*
D50*
X22800Y155100D03*
X22800Y145100D03*
X22800Y135100D03*
X50800Y135100D03*
X50800Y145100D03*
X50800Y155100D03*
M02*
