G04 EAGLE Gerber RS-274X export*
G75*
%MOMM*%
%FSLAX34Y34*%
%LPD*%
%INSoldermask Top*%
%IPPOS*%
%AMOC8*
5,1,8,0,0,1.08239X$1,22.5*%
G01*
%ADD10C,3.603200*%
%ADD11C,0.353406*%
%ADD12R,1.503200X0.603200*%
%ADD13R,0.503200X1.053200*%
%ADD14R,1.053200X0.503200*%
%ADD15R,1.676400X0.558800*%
%ADD16R,1.003200X0.803200*%
%ADD17R,0.803200X1.003200*%
%ADD18R,1.103200X1.703200*%
%ADD19R,1.703200X1.103200*%
%ADD20R,1.103200X1.103200*%
%ADD21R,1.701800X1.016000*%
%ADD22R,1.016000X1.701800*%
%ADD23R,5.003800X5.003800*%
%ADD24R,1.079500X0.711200*%
%ADD25R,0.663200X1.243200*%
%ADD26R,0.903200X0.803200*%
%ADD27R,0.803200X0.903200*%
%ADD28R,0.903200X1.103200*%
%ADD29R,1.103200X0.903200*%
%ADD30R,1.303200X1.203200*%
%ADD31R,1.203200X1.303200*%
%ADD32R,2.003200X1.803200*%
%ADD33R,2.209800X1.003200*%
%ADD34R,1.003200X2.209800*%
%ADD35C,2.153200*%
%ADD36R,1.711200X1.711200*%
%ADD37C,1.711200*%
%ADD38R,2.003200X2.003200*%
%ADD39R,0.609600X1.549400*%
%ADD40R,1.803400X1.600200*%
%ADD41R,2.108200X2.108200*%
%ADD42C,2.108200*%
%ADD43R,0.453200X0.703200*%
%ADD44R,0.473200X1.193200*%
%ADD45R,1.193200X0.473200*%
%ADD46R,3.453200X3.453200*%
%ADD47R,1.243200X0.663200*%
%ADD48R,1.703200X1.503200*%
%ADD49R,1.503200X1.703200*%
%ADD50R,0.558800X0.711200*%
%ADD51R,0.711200X0.558800*%
%ADD52R,2.803200X1.803200*%
%ADD53R,1.803200X2.803200*%
%ADD54R,0.914400X0.457200*%
%ADD55R,0.762000X1.524000*%
%ADD56R,0.803200X0.603200*%
%ADD57R,1.703200X2.603200*%
%ADD58C,0.959600*%


D10*
X35000Y35000D03*
X540000Y35000D03*
X540000Y620000D03*
X35000Y620000D03*
D11*
X358551Y281649D02*
X376749Y281649D01*
X376749Y277151D01*
X358551Y277151D01*
X358551Y281649D01*
X358551Y280508D02*
X376749Y280508D01*
X376749Y294349D02*
X358551Y294349D01*
X376749Y294349D02*
X376749Y289851D01*
X358551Y289851D01*
X358551Y294349D01*
X358551Y293208D02*
X376749Y293208D01*
X376749Y307049D02*
X358551Y307049D01*
X376749Y307049D02*
X376749Y302551D01*
X358551Y302551D01*
X358551Y307049D01*
X358551Y305908D02*
X376749Y305908D01*
X376749Y319749D02*
X358551Y319749D01*
X376749Y319749D02*
X376749Y315251D01*
X358551Y315251D01*
X358551Y319749D01*
X358551Y318608D02*
X376749Y318608D01*
X376749Y332449D02*
X358551Y332449D01*
X376749Y332449D02*
X376749Y327951D01*
X358551Y327951D01*
X358551Y332449D01*
X358551Y331308D02*
X376749Y331308D01*
X376749Y345149D02*
X358551Y345149D01*
X376749Y345149D02*
X376749Y340651D01*
X358551Y340651D01*
X358551Y345149D01*
X358551Y344008D02*
X376749Y344008D01*
X376749Y357849D02*
X358551Y357849D01*
X376749Y357849D02*
X376749Y353351D01*
X358551Y353351D01*
X358551Y357849D01*
X358551Y356708D02*
X376749Y356708D01*
X327249Y357849D02*
X309051Y357849D01*
X327249Y357849D02*
X327249Y353351D01*
X309051Y353351D01*
X309051Y357849D01*
X309051Y356708D02*
X327249Y356708D01*
X327249Y345149D02*
X309051Y345149D01*
X327249Y345149D02*
X327249Y340651D01*
X309051Y340651D01*
X309051Y345149D01*
X309051Y344008D02*
X327249Y344008D01*
X327249Y332449D02*
X309051Y332449D01*
X327249Y332449D02*
X327249Y327951D01*
X309051Y327951D01*
X309051Y332449D01*
X309051Y331308D02*
X327249Y331308D01*
X327249Y319749D02*
X309051Y319749D01*
X327249Y319749D02*
X327249Y315251D01*
X309051Y315251D01*
X309051Y319749D01*
X309051Y318608D02*
X327249Y318608D01*
X327249Y307049D02*
X309051Y307049D01*
X327249Y307049D02*
X327249Y302551D01*
X309051Y302551D01*
X309051Y307049D01*
X309051Y305908D02*
X327249Y305908D01*
X327249Y294349D02*
X309051Y294349D01*
X327249Y294349D02*
X327249Y289851D01*
X309051Y289851D01*
X309051Y294349D01*
X309051Y293208D02*
X327249Y293208D01*
X327249Y281649D02*
X309051Y281649D01*
X327249Y281649D02*
X327249Y277151D01*
X309051Y277151D01*
X309051Y281649D01*
X309051Y280508D02*
X327249Y280508D01*
D12*
X209000Y259700D03*
X209000Y269700D03*
D13*
X194000Y281200D03*
X189000Y281200D03*
D14*
X182000Y274200D03*
X182000Y269200D03*
X182000Y264200D03*
X182000Y259200D03*
D13*
X189000Y252200D03*
X194000Y252200D03*
D12*
X209000Y263700D03*
X209000Y273700D03*
D15*
X85090Y276860D03*
X85090Y270256D03*
X85090Y263652D03*
X85090Y257302D03*
X85090Y250698D03*
X85090Y244348D03*
X85090Y237744D03*
X85090Y231140D03*
X143510Y231140D03*
X143510Y237744D03*
X143510Y244348D03*
X143510Y250698D03*
X143510Y257302D03*
X143510Y263652D03*
X143510Y270256D03*
X143510Y276860D03*
D16*
X231200Y304800D03*
X251400Y295300D03*
X251400Y314300D03*
D17*
X101600Y157500D03*
X92100Y137300D03*
X111100Y137300D03*
D18*
X23600Y331600D03*
X36300Y331600D03*
X49000Y331600D03*
X61700Y331600D03*
X74400Y331600D03*
X87100Y331600D03*
X99800Y331600D03*
X112500Y331600D03*
X125200Y331600D03*
X137900Y331600D03*
X150600Y331600D03*
X163300Y331600D03*
X176000Y331600D03*
X188700Y331600D03*
D19*
X201200Y361950D03*
X201200Y374650D03*
X201200Y387350D03*
X201200Y400050D03*
X201200Y412750D03*
X201200Y425450D03*
X201200Y438150D03*
X201200Y450850D03*
X201200Y463550D03*
X201200Y476250D03*
D18*
X188700Y506600D03*
X176000Y506600D03*
X163300Y506600D03*
X150600Y506600D03*
X137900Y506600D03*
X125200Y506600D03*
X112500Y506600D03*
X99800Y506600D03*
X87100Y506600D03*
X74400Y506600D03*
X61700Y506600D03*
X49000Y506600D03*
X36300Y506600D03*
X23600Y506600D03*
D20*
X86800Y390100D03*
X86800Y404100D03*
X86800Y418100D03*
X100800Y390100D03*
X100800Y404100D03*
X100800Y418100D03*
X114800Y390100D03*
X114800Y404100D03*
X114800Y418100D03*
D21*
X101200Y609200D03*
X101200Y596700D03*
X101200Y584200D03*
X101200Y571700D03*
X101200Y559200D03*
D22*
X116200Y544200D03*
X128700Y544200D03*
X141200Y544200D03*
X153700Y544200D03*
X166200Y544200D03*
D21*
X181200Y559200D03*
X181200Y571700D03*
X181200Y584200D03*
X181200Y596700D03*
X181200Y609200D03*
D22*
X166200Y624200D03*
X153700Y624200D03*
X141200Y624200D03*
X128700Y624200D03*
X116200Y624200D03*
D23*
X141200Y584200D03*
D24*
X483045Y92100D03*
X483045Y101600D03*
X483045Y111100D03*
X456756Y111100D03*
X456756Y92100D03*
D25*
X406400Y62700D03*
X406400Y38900D03*
X215900Y227800D03*
X215900Y204000D03*
X177800Y227800D03*
X177800Y204000D03*
D26*
X266700Y261700D03*
X266700Y271700D03*
X266700Y246300D03*
X266700Y236300D03*
X94300Y185500D03*
X94300Y195500D03*
X81400Y195900D03*
X81400Y185900D03*
D27*
X376000Y38100D03*
X386000Y38100D03*
D26*
X416400Y299800D03*
X416400Y309800D03*
X416400Y274400D03*
X416400Y284400D03*
D27*
X527500Y231300D03*
X517500Y231300D03*
D26*
X386000Y398700D03*
X386000Y388700D03*
X406400Y350600D03*
X406400Y360600D03*
D27*
X347900Y203200D03*
X337900Y203200D03*
X337900Y254000D03*
X347900Y254000D03*
D26*
X416400Y236300D03*
X416400Y246300D03*
X63500Y236300D03*
X63500Y246300D03*
D27*
X33100Y175260D03*
X43100Y175260D03*
D26*
X63500Y157400D03*
X63500Y147400D03*
D28*
X336400Y228600D03*
X349400Y228600D03*
D29*
X431800Y349100D03*
X431800Y362100D03*
X482600Y362100D03*
X482600Y349100D03*
X342900Y120500D03*
X342900Y133500D03*
X355600Y120500D03*
X355600Y133500D03*
X242800Y539600D03*
X242800Y552600D03*
D28*
X272900Y76200D03*
X285900Y76200D03*
D30*
X287900Y25400D03*
X270900Y25400D03*
D31*
X381000Y72000D03*
X381000Y55000D03*
D30*
X287900Y50800D03*
X270900Y50800D03*
D31*
X431800Y42300D03*
X431800Y59300D03*
X431800Y148200D03*
X431800Y131200D03*
X304800Y194700D03*
X304800Y211700D03*
D32*
X381000Y242600D03*
X381000Y214600D03*
D33*
X431800Y111600D03*
X431800Y91600D03*
D34*
X274000Y165100D03*
X254000Y165100D03*
D35*
X533400Y127400D03*
X533400Y177400D03*
D36*
X280900Y614600D03*
D37*
X306300Y614600D03*
X331700Y614600D03*
X357100Y614600D03*
X382500Y614600D03*
X407900Y614600D03*
X433300Y614600D03*
X458700Y614600D03*
D36*
X280900Y558800D03*
D37*
X306300Y558800D03*
X331700Y558800D03*
X357100Y558800D03*
X382500Y558800D03*
X407900Y558800D03*
X433300Y558800D03*
X458700Y558800D03*
D31*
X88900Y110100D03*
X88900Y93100D03*
X266700Y194700D03*
X266700Y211700D03*
D38*
X545700Y284400D03*
X520700Y284400D03*
X545700Y367900D03*
X520700Y367900D03*
X545700Y446400D03*
X520700Y446400D03*
X419100Y495300D03*
X393700Y495300D03*
X368300Y495300D03*
X342900Y495300D03*
D39*
X152100Y51471D03*
X158600Y51471D03*
X165100Y51471D03*
X171600Y51471D03*
X178100Y51471D03*
D40*
X133100Y49221D03*
X197100Y49221D03*
D41*
X153100Y22721D03*
X177100Y22721D03*
D42*
X132100Y22721D03*
X198100Y22721D03*
D43*
X254000Y91600D03*
X259000Y91600D03*
X264000Y91600D03*
X269000Y91600D03*
X254000Y106600D03*
X259000Y106600D03*
X264000Y106600D03*
X269000Y106600D03*
D44*
X150100Y128800D03*
X155100Y128800D03*
X160100Y128800D03*
X165100Y128800D03*
X170100Y128800D03*
X175100Y128800D03*
X180100Y128800D03*
D45*
X188700Y137400D03*
X188700Y142400D03*
X188700Y147400D03*
X188700Y152400D03*
X188700Y157400D03*
X188700Y162400D03*
X188700Y167400D03*
D44*
X180100Y176000D03*
X175100Y176000D03*
X170100Y176000D03*
X165100Y176000D03*
X160100Y176000D03*
X155100Y176000D03*
X150100Y176000D03*
D45*
X141500Y167400D03*
X141500Y162400D03*
X141500Y157400D03*
X141500Y152400D03*
X141500Y147400D03*
X141500Y142400D03*
X141500Y137400D03*
D46*
X165100Y152400D03*
D47*
X89700Y63500D03*
X113500Y63500D03*
D27*
X220900Y127000D03*
X210900Y127000D03*
X241300Y127000D03*
X251300Y127000D03*
D26*
X228600Y106600D03*
X228600Y96600D03*
D48*
X177800Y74400D03*
X177800Y93400D03*
D29*
X203200Y82400D03*
X203200Y95400D03*
X368300Y120500D03*
X368300Y133500D03*
D49*
X320280Y88340D03*
X320280Y18340D03*
X345280Y18340D03*
X345280Y88340D03*
D27*
X259000Y355600D03*
X249000Y355600D03*
X289400Y355600D03*
X279400Y355600D03*
X279400Y381000D03*
X289400Y381000D03*
D26*
X254000Y386000D03*
X254000Y376000D03*
D50*
X101600Y33401D03*
X101600Y17399D03*
D51*
X233299Y25400D03*
X249301Y25400D03*
X233299Y50800D03*
X249301Y50800D03*
D27*
X210900Y152400D03*
X220900Y152400D03*
D52*
X312200Y393700D03*
X348200Y393700D03*
X444200Y228600D03*
X480200Y228600D03*
D53*
X454500Y274100D03*
X454500Y310100D03*
D54*
X119253Y106600D03*
X119253Y101600D03*
X119253Y96600D03*
X134747Y96600D03*
X134747Y101600D03*
X134747Y106600D03*
D55*
X127000Y101600D03*
D56*
X22800Y155100D03*
X22800Y145100D03*
X22800Y135100D03*
X50800Y135100D03*
X50800Y145100D03*
X50800Y155100D03*
D57*
X36800Y145100D03*
D58*
X420000Y215000D03*
X360000Y245000D03*
X425000Y290000D03*
X270000Y115000D03*
X290000Y365000D03*
X240000Y70000D03*
X220000Y70000D03*
X100000Y450000D03*
X35000Y475000D03*
X35000Y415000D03*
X35000Y370000D03*
X95000Y375000D03*
X205000Y585000D03*
X205000Y530000D03*
X405000Y370000D03*
X370000Y370000D03*
X158932Y255000D03*
X180000Y245000D03*
X280000Y475000D03*
X235000Y470000D03*
X350000Y280000D03*
X335000Y280000D03*
X410000Y130000D03*
X240000Y170000D03*
X345000Y315000D03*
X225000Y280000D03*
X330000Y435000D03*
X327486Y367514D03*
X55000Y175000D03*
X70000Y175000D03*
X255000Y270000D03*
X195000Y270000D03*
X105000Y238000D03*
X45000Y240000D03*
X145000Y285000D03*
X255000Y147000D03*
X275000Y140000D03*
X240000Y185000D03*
X205000Y175000D03*
X125000Y491068D03*
X95000Y540000D03*
X200000Y635000D03*
X230000Y410000D03*
X195000Y295000D03*
X155000Y295000D03*
X290000Y500000D03*
X470000Y350000D03*
X400000Y320000D03*
X250000Y335000D03*
X350000Y335000D03*
X255000Y260000D03*
X235000Y260000D03*
X220000Y305000D03*
X60000Y310000D03*
X320000Y245000D03*
X255000Y245000D03*
X250000Y515000D03*
X405000Y530000D03*
X100000Y125000D03*
X320000Y119932D03*
X100000Y170000D03*
X280000Y220000D03*
X210000Y505000D03*
X265000Y505000D03*
X255000Y545000D03*
X105000Y220000D03*
X238000Y225000D03*
X80000Y310000D03*
X80000Y470000D03*
X218932Y470000D03*
X75000Y485000D03*
X70000Y310000D03*
X298574Y521426D03*
X30000Y310000D03*
X34000Y354000D03*
X205000Y545000D03*
X85000Y525000D03*
X50000Y525000D03*
X50000Y360000D03*
X50000Y310000D03*
X65000Y295000D03*
X105000Y295000D03*
X142000Y390000D03*
X320000Y455000D03*
X250068Y210000D03*
X200000Y205000D03*
X215000Y115000D03*
X145000Y115000D03*
X290000Y235000D03*
X255000Y235000D03*
X275000Y536068D03*
X285000Y100000D03*
X245000Y100000D03*
X385000Y330000D03*
X435000Y330000D03*
X130000Y65000D03*
X230000Y60000D03*
X171168Y108932D03*
X159032Y108932D03*
X220000Y140000D03*
X238000Y140000D03*
X105000Y185000D03*
X300000Y225000D03*
X300000Y355000D03*
X415000Y380000D03*
X130000Y311068D03*
X265000Y315000D03*
X85000Y210000D03*
X135000Y210000D03*
X460000Y515000D03*
X310000Y510000D03*
X290000Y315000D03*
X285000Y345000D03*
X335000Y345000D03*
X258932Y345000D03*
X245000Y365000D03*
X185000Y375000D03*
X280000Y365000D03*
X406068Y290000D03*
X387000Y290000D03*
X387000Y260000D03*
X415000Y260000D03*
X455000Y205000D03*
X360000Y205000D03*
M02*
